<svg width="42" height="19" viewBox="0 0 42 19" fill="none" xmlns="http://www.w3.org/2000/svg">
  <path fill-rule="evenodd" clip-rule="evenodd" d="M8.17289 10.8025C8.17289 11.8829 10.0649 13.8629 12.118 13.835C9.94015 12.6003 9.05398 11.8828 8.76477 9.59118C6.06974 10.5498 5.23267 10.4829 2.65625 9.18018C3.96449 10.9094 5.8101 11.3044 8.17289 10.8025Z" fill="#00A859"/>
  <path fill-rule="evenodd" clip-rule="evenodd" d="M10.4677 6.34032C10.9209 8.55654 13.9543 12.316 17.8215 12.2634C13.5669 10.1992 11.9733 8.2691 11.9733 3.8062C7.67858 6.38694 5.63418 6.09065 0 3.49609C2.46409 6.75296 6.68034 7.28634 10.4677 6.34032Z" fill="#00A859"/>
  <path fill-rule="evenodd" clip-rule="evenodd" d="M9.28719 8.83004C9.28712 10.5088 12.2273 13.5856 15.4176 13.5422C12.0639 11.6237 10.3634 10.5088 9.97259 7.21903C5.78473 8.70865 4.71837 8.33346 0.714844 6.30908C2.74776 8.99603 5.61551 9.60995 9.28712 8.82998L9.28719 8.83004Z" fill="#00A859"/>
  <path fill-rule="evenodd" clip-rule="evenodd" d="M32.2362 10.8015C32.2362 11.8819 30.3442 13.8619 28.291 13.834C30.4689 12.5993 31.355 11.8819 31.6443 9.5902C34.3393 10.5489 35.1764 10.4819 37.7528 9.1792C36.4446 10.9084 34.599 11.3034 32.2362 10.8015Z" fill="#00A859"/>
  <path fill-rule="evenodd" clip-rule="evenodd" d="M29.9007 6.26659C29.4475 8.48281 26.4141 12.2423 22.5469 12.1896C26.8015 10.1255 28.3951 8.19543 28.3951 3.73247C32.6897 6.31327 34.7341 6.01692 40.3683 3.42236C37.9042 6.67923 33.688 7.21268 29.9007 6.26659Z" fill="#00A859"/>
  <path fill-rule="evenodd" clip-rule="evenodd" d="M31.0796 8.7568C31.0796 10.4356 28.1395 13.5123 24.9492 13.469C28.3029 11.5504 30.0035 10.4356 30.3942 7.14578C34.582 8.63547 35.6484 8.26022 39.6519 6.23584C37.6191 8.92279 34.7513 9.53671 31.0797 8.75673L31.0796 8.7568Z" fill="#00A859"/>
  <path fill-rule="evenodd" clip-rule="evenodd" d="M31.1144 17.5907C29.8738 17.7815 27.4644 17.4586 26.2912 17.1948C24.8403 16.8684 23.5911 16.2641 22.5867 15.58C21.3784 14.7572 20.6083 13.6575 20.2009 12.5644C19.7931 13.6575 19.0229 14.757 17.8148 15.58C16.8105 16.2641 15.5612 16.8684 14.1103 17.1948C12.9371 17.4586 10.5276 17.7815 9.28711 17.5907C9.33318 17.4982 10.2825 16.2099 10.3478 16.1543C10.5979 15.943 10.5049 16.0184 10.9309 16.0316C11.1505 16.0382 11.3277 16.0496 11.5519 16.0422C14.7997 15.9338 18.9684 14.2228 19.8924 11.3619L19.8804 11.2715C19.3726 12.3761 18.2893 13.3442 17.3122 14.0085C15.7233 15.0884 13.0253 15.9942 10.6206 15.7158C10.7105 15.5308 11.702 14.1998 11.9755 13.91C12.007 13.8765 12.0417 13.843 12.0767 13.8127C15.0074 14.6732 19.8167 11.0058 19.6548 10.4146C19.8508 10.5282 20.0438 10.7169 20.2009 10.9922C20.343 10.7424 20.5035 10.567 20.7467 10.4146C20.5848 11.0058 25.3943 14.6732 28.3248 13.8127C28.3598 13.843 28.3944 13.8765 28.426 13.91C28.6997 14.1998 29.6911 15.5307 29.7809 15.7158C27.3763 15.9941 24.678 15.0884 23.0893 14.0085C22.0986 13.335 21.0301 12.3687 20.5221 11.2637L20.5093 11.3619C21.4333 14.2229 25.6018 15.9333 28.8496 16.0422C29.0738 16.0496 29.2509 16.0382 29.4705 16.0316C29.8965 16.0184 29.8035 15.9429 30.0536 16.1543C30.1189 16.2099 31.0683 17.4982 31.1143 17.5907H31.1144Z" fill="#2A55A3"/>
  <path fill-rule="evenodd" clip-rule="evenodd" d="M20.1491 11.3139C16.3411 11.3139 13.2539 8.25127 13.2539 4.47327C13.2539 4.26616 13.2637 4.05912 13.2824 3.85287C13.2851 3.82353 13.3096 3.80127 13.3393 3.80127C13.369 3.80127 13.3936 3.8236 13.3963 3.85287C13.71 7.31454 16.6442 9.97006 20.1491 9.97006C23.654 9.97006 26.5881 7.31441 26.9018 3.85287C26.9045 3.82353 26.9291 3.80127 26.9588 3.80127C26.9885 3.80127 27.013 3.8236 27.0157 3.85287C27.0345 4.05912 27.0442 4.26616 27.0442 4.47327C27.0442 8.2512 23.9572 11.3139 20.149 11.3139H20.1491Z" fill="url(#favicon_grad)"/>
  <path d="M20.1491 0C21.5239 0 22.7692 0.546216 23.671 1.42912C24.5739 2.31333 25.1325 3.53456 25.1325 4.88281C25.1325 6.23126 24.574 7.45255 23.671 8.33676C22.7692 9.21973 21.524 9.76595 20.1491 9.76595C18.7743 9.76595 17.5292 9.21973 16.6274 8.3367C15.7245 7.45242 15.166 6.23119 15.166 4.88281C15.166 3.53442 15.7246 2.31326 16.6275 1.42918C17.5293 0.546216 18.7744 0 20.1491 0ZM23.318 1.78525C22.5076 0.991726 21.3873 0.500905 20.1491 0.500905C18.9112 0.500905 17.7908 0.991792 16.9805 1.78532C16.1715 2.57753 15.6709 3.67278 15.6709 4.88287C15.6709 6.09303 16.1715 7.18835 16.9805 7.98069C17.7909 8.77428 18.9112 9.26517 20.1491 9.26517C21.3873 9.26517 22.5077 8.77428 23.318 7.98076C24.1272 7.18841 24.6277 6.0931 24.6277 4.88287C24.6277 3.67284 24.1272 2.57766 23.318 1.78525Z" fill="#2A55A3"/>
  <path d="M20.3285 0.254024C21.1383 1.23115 21.8657 3.1268 21.8657 5.12413C21.8657 6.64191 21.4474 8.22287 20.3313 9.5118C20.2711 9.51409 20.2106 9.51553 20.1497 9.51553C20.1134 9.51553 20.0771 9.51501 20.041 9.51422V0.251798C20.0772 0.251012 20.1134 0.250488 20.1497 0.250488C20.2096 0.250488 20.2692 0.251929 20.3285 0.25409V0.254024ZM21.6502 5.12413C21.6502 3.25186 21.0014 1.47774 20.2565 0.503625V9.27195C21.2686 8.04634 21.6502 6.55731 21.6502 5.12413Z" fill="#2A55A3"/>
  <path d="M20.037 0.503691C19.2921 1.4778 18.6433 3.25192 18.6433 5.1242C18.6433 6.55737 19.0249 8.04641 20.037 9.27202V0.503691ZM20.1489 0.250488C20.1835 0.250488 20.2181 0.251012 20.2526 0.251732V9.51429C20.2181 9.51501 20.1835 9.51553 20.1489 9.51553C20.0862 9.51553 20.024 9.51402 19.9619 9.5116C18.846 8.22267 18.4277 6.64184 18.4277 5.12413C18.4277 3.12699 19.1551 1.23141 19.9648 0.254286C20.0258 0.251994 20.0872 0.250488 20.1489 0.250488Z" fill="#2A55A3"/>
  <path d="M20.4271 0.258608C21.1655 0.748119 21.8648 1.46012 22.3802 2.29523C22.8442 3.04776 23.162 3.9033 23.2267 4.78705C23.2917 5.6748 23.1043 6.59345 22.5596 7.47072C22.1124 8.19104 21.4226 8.8838 20.4343 9.50682C20.3397 9.51239 20.2443 9.51553 20.1482 9.51553C20.1117 9.51553 20.0753 9.51501 20.0391 9.51422V0.251798C20.0754 0.251012 20.1118 0.250488 20.1482 0.250488C20.2419 0.250488 20.3349 0.253435 20.4272 0.258673L20.4271 0.258608ZM22.1959 2.40425C21.6847 1.57622 20.9879 0.873837 20.2553 0.400301V9.36879C21.2474 8.75442 21.935 8.07076 22.3753 7.36092C22.8945 6.5247 23.0731 5.64828 23.0112 4.80198C22.9488 3.9526 22.6429 3.12942 22.1959 2.40431V2.40425Z" fill="#2A55A3"/>
  <path d="M20.0403 0.400498C19.3078 0.874033 18.6109 1.57641 18.0998 2.40445C17.6527 3.12955 17.3468 3.95273 17.2845 4.8025C17.2226 5.6488 17.4012 6.52522 17.9203 7.36151C18.3607 8.07089 19.0478 8.75455 20.0403 9.36892V0.400432V0.400498ZM20.1494 0.250619C20.1853 0.250619 20.221 0.251143 20.2566 0.251929V9.51435C20.221 9.51514 20.1853 9.51566 20.1494 9.51566C20.0526 9.51566 19.9565 9.51245 19.8611 9.50682C18.8732 8.88426 18.1831 8.1915 17.736 7.47131C17.1914 6.59398 17.004 5.67532 17.069 4.78758C17.1335 3.90336 17.4515 3.0479 17.9155 2.29536C18.4308 1.46032 19.13 0.748381 19.8683 0.258869C19.9613 0.2535 20.055 0.250488 20.1495 0.250488L20.1494 0.250619Z" fill="#2A55A3"/>
  <path d="M15.7928 3.07275H24.5047C24.535 3.14255 24.5635 3.2132 24.5904 3.28464H15.707C15.7339 3.2132 15.7624 3.14249 15.7927 3.07275H15.7928Z" fill="#2A55A3"/>
  <path d="M15.4277 5.17139H24.8707C24.8662 5.24243 24.8602 5.31308 24.8525 5.38327H15.446C15.4383 5.31308 15.4323 5.24243 15.4278 5.17139H15.4277Z" fill="#2A55A3"/>
  <path d="M16.0938 7.27051H24.2032C24.1589 7.34247 24.1128 7.41312 24.0646 7.48239H16.2322C16.1842 7.41305 16.138 7.3424 16.0938 7.27051Z" fill="#2A55A3"/>
  <defs>
    <linearGradient id="favicon_grad" x1="13.254" y1="7.5576" x2="27.0444" y2="7.5576" gradientUnits="userSpaceOnUse">
      <stop stop-color="#DC9617"/>
      <stop offset="0.388235" stop-color="#FFCF25"/>
      <stop offset="0.6" stop-color="#FFFF90"/>
      <stop offset="0.85098" stop-color="#DA9917"/>
      <stop offset="1" stop-color="#ECBF26"/>
    </linearGradient>
  </defs>
</svg>
