<svg width="177" height="23" viewBox="0 0 177 23" fill="none" xmlns="http://www.w3.org/2000/svg">
<path d="M48.9879 9.3813L56.0576 0.250488H63.2054L54.3585 10.7298L64.0187 22.3698H56.5145L48.9879 12.7859V22.3698H43.2051V0.250488H48.9879V9.3813ZM75.1625 7.34736H80.5107V22.3699H75.1625V20.7173C74.0093 22.1487 72.4495 22.8672 70.4884 22.8672C69.2182 22.8672 67.998 22.5467 66.8281 21.9111C65.5578 21.1981 64.5662 20.22 63.8588 18.9762C63.1735 17.7659 62.8281 16.3841 62.8281 14.8254C62.8281 12.2665 63.725 10.2159 65.5244 8.67931C66.9507 7.45776 68.5886 6.84986 70.4438 6.84986C71.4187 6.84986 72.2878 7.00465 73.0399 7.31973C73.792 7.63474 74.4996 8.13218 75.1625 8.81754V7.34743V7.34736ZM71.87 11.4263C70.9117 11.4263 70.0984 11.7634 69.4243 12.4322C68.7501 13.1065 68.4103 13.897 68.4103 14.8089C68.4103 15.7872 68.7501 16.6108 69.4243 17.285C70.0873 17.9538 70.9006 18.2909 71.87 18.2909C72.8283 18.2909 73.6416 17.9538 74.3157 17.285C74.9898 16.6218 75.3297 15.8149 75.3297 14.8586C75.3297 13.9025 74.9954 13.0955 74.3269 12.4322C73.6584 11.7744 72.8393 11.4374 71.87 11.4263ZM82.6237 7.34736H87.9719V9.23758C88.5904 8.52459 89.1642 8.02159 89.6879 7.72864C90.5346 7.25334 91.5821 7.01565 92.8189 7.01565C94.674 7.01565 96.128 7.56835 97.1978 8.66825C97.7215 9.19881 98.0834 9.76264 98.2895 10.3705C98.4958 10.9729 98.6016 11.7856 98.6016 12.8024V22.3698H93.2534V14.7591C93.2534 13.5983 93.142 12.8135 92.9246 12.399C92.7519 12.0398 92.4677 11.7579 92.0666 11.5422C91.6712 11.3323 91.2422 11.2272 90.7853 11.2272C89.8494 11.2272 89.1028 11.5644 88.5457 12.2387C88.1614 12.703 87.9719 13.3994 87.9719 14.3224V22.3698H82.6237V7.3473V7.34736ZM112.386 7.34736H117.734V22.3699H112.386V20.7173C111.233 22.1487 109.673 22.8672 107.712 22.8672C106.442 22.8672 105.222 22.5467 104.052 21.9111C102.781 21.1981 101.79 20.22 101.082 18.9762C100.397 17.7659 100.052 16.3841 100.052 14.8254C100.052 12.2665 100.949 10.2159 102.748 8.67931C104.174 7.45776 105.812 6.84986 107.667 6.84986C108.642 6.84986 109.511 7.00465 110.263 7.31973C111.015 7.63474 111.723 8.13218 112.386 8.81754V7.34743L112.386 7.34736ZM109.094 11.4263C108.135 11.4263 107.322 11.7634 106.648 12.4322C105.974 13.1065 105.634 13.897 105.634 14.8089C105.634 15.7872 105.974 16.6108 106.648 17.285C107.311 17.9538 108.124 18.2909 109.094 18.2909C110.052 18.2909 110.865 17.9538 111.539 17.285C112.213 16.6218 112.553 15.8149 112.553 14.8586C112.553 13.9025 112.219 13.0955 111.55 12.4322C110.882 11.7744 110.063 11.4374 109.094 11.4263ZM119.847 7.34736H125.195V9.23758C125.814 8.52459 126.388 8.02159 126.911 7.72864C127.758 7.25334 128.806 7.01565 130.042 7.01565C131.897 7.01565 133.351 7.56835 134.421 8.66825C134.945 9.19881 135.307 9.76264 135.513 10.3705C135.719 10.9729 135.825 11.7856 135.825 12.8024V22.3698H130.477V14.7591C130.477 13.5983 130.365 12.8135 130.148 12.399C129.975 12.0398 129.691 11.7579 129.29 11.5422C128.895 11.3323 128.466 11.2272 128.009 11.2272C127.073 11.2272 126.326 11.5644 125.769 12.2387C125.385 12.703 125.195 13.3994 125.195 14.3224V22.3698H119.847V7.3473V7.34736ZM141.136 16.1353C142.094 16.1353 142.907 16.4725 143.582 17.1413C144.256 17.8101 144.596 18.617 144.596 19.5677C144.596 20.5183 144.256 21.3252 143.582 21.9941C142.907 22.6628 142.094 23 141.136 23C140.166 23 139.353 22.6628 138.69 21.9941C138.016 21.3142 137.676 20.4907 137.676 19.5178C137.676 18.5894 138.016 17.799 138.69 17.1413C139.364 16.478 140.177 16.1463 141.136 16.1353ZM157.873 7.71757V12.2331C156.937 11.5865 156.018 11.2604 155.104 11.2604C153.962 11.2604 153.032 11.6529 152.302 12.4433C151.717 13.0899 151.422 13.9134 151.422 14.9083C151.422 15.9862 151.778 16.8593 152.497 17.517C153.227 18.1858 154.096 18.5229 155.104 18.5229C156.09 18.5229 157.015 18.1914 157.873 17.5282V22.0271C156.631 22.5854 155.383 22.8672 154.118 22.8672C152.553 22.8672 151.082 22.4637 149.711 21.6513C147.132 20.1424 145.839 17.9205 145.839 14.9912C145.839 12.5095 146.742 10.4866 148.547 8.9225C150.107 7.56279 152.012 6.88293 154.263 6.88293C155.561 6.88293 156.764 7.15938 157.873 7.71751V7.71757ZM167.875 6.78353C170.877 6.78353 173.223 7.69001 174.911 9.50283C176.304 10.9951 177 12.7748 177 14.8475C177 17.2905 176.086 19.2912 174.259 20.8444C172.627 22.2371 170.476 22.9337 167.802 22.9337C166.103 22.9337 164.521 22.5744 163.039 21.8504C161.657 21.1705 160.577 20.1315 159.797 18.7386C159.123 17.5614 158.783 16.2238 158.783 14.7204C158.783 12.3991 159.696 10.448 161.524 8.87286C163.095 7.52428 165.217 6.8278 167.875 6.7836L167.875 6.78353ZM167.886 11.36C166.922 11.36 166.108 11.6972 165.446 12.3659C164.772 13.0458 164.432 13.8416 164.432 14.7591C164.432 15.7429 164.772 16.5719 165.446 17.2519C166.108 17.9205 166.928 18.2577 167.902 18.2577C168.849 18.2577 169.663 17.9205 170.337 17.2519C171.011 16.5719 171.351 15.7596 171.351 14.8089C171.351 13.8471 171.017 13.0346 170.354 12.3714C169.685 11.7082 168.866 11.371 167.886 11.36Z" fill="#2A55A3"/>
<path fill-rule="evenodd" clip-rule="evenodd" d="M172.002 3.45132C172.002 3.14698 172.029 2.92579 172.159 2.66395C172.333 2.31233 172.598 2.04983 172.952 1.87664C173.379 1.6679 173.956 1.6677 174.383 1.87664C174.478 1.92306 174.544 1.96379 174.63 2.02056C175.023 2.28129 175.333 2.81533 175.333 3.29581C175.333 3.63164 175.31 3.78447 175.176 4.08292C175.137 4.16921 175.083 4.251 175.031 4.32806C174.88 4.55226 174.629 4.7502 174.383 4.87042C173.956 5.07916 173.379 5.07929 172.952 4.87042C172.597 4.6967 172.334 4.43519 172.159 4.08311C172.087 3.93873 172.002 3.66582 172.002 3.45125L172.002 3.45132ZM173.589 1.30345C173.586 1.3041 173.36 1.30207 173.133 1.36585C172.982 1.40821 172.876 1.45104 172.747 1.50754C172.53 1.60242 172.239 1.83277 172.083 2.01578C171.845 2.29648 171.688 2.61039 171.613 2.97745C171.58 3.13892 171.562 3.41282 171.583 3.57507C171.597 3.67905 171.616 3.80745 171.644 3.90409C171.705 4.11867 171.77 4.26979 171.878 4.44939C171.925 4.52856 172.035 4.6842 172.102 4.75144C172.268 4.91704 172.311 4.96975 172.523 5.11137C172.552 5.13023 172.572 5.14241 172.602 5.16016C172.634 5.17947 172.658 5.18877 172.691 5.20736C172.963 5.35888 173.451 5.48669 173.749 5.44642C173.809 5.43824 173.858 5.44669 173.983 5.4258C174.06 5.41283 174.13 5.4019 174.202 5.38147C174.46 5.30879 174.699 5.202 174.91 5.04406C175.21 4.82039 175.463 4.51232 175.602 4.16516C175.698 3.92479 175.782 3.62025 175.755 3.29541C175.747 3.20145 175.75 3.14324 175.736 3.0612C175.702 2.86162 175.639 2.6299 175.546 2.46214C175.462 2.30938 175.358 2.12094 175.233 1.99581C175.21 1.97302 175.191 1.95698 175.169 1.93223C175.125 1.88044 175.015 1.78556 174.965 1.74641C174.705 1.54349 174.395 1.39603 174.067 1.33527C173.999 1.32276 173.903 1.30495 173.834 1.30319C173.782 1.30194 173.753 1.30194 173.714 1.29644C173.644 1.28682 173.636 1.29238 173.589 1.30351L173.589 1.30345Z" fill="#2A55A3"/>
<path fill-rule="evenodd" clip-rule="evenodd" d="M173.892 3.15963H173.255V2.75144H173.853C173.982 2.75144 174.078 2.8456 174.078 2.92633V2.97498C174.078 3.07097 173.989 3.15963 173.892 3.15963H173.892ZM172.824 4.41333H173.255V3.58726C173.621 3.58726 173.521 3.53613 173.686 3.7816L174.108 4.41333H174.617C174.58 4.34386 174.523 4.26922 174.478 4.20151C174.436 4.13859 174.061 3.60193 174.049 3.55806C174.19 3.49075 174.25 3.49645 174.386 3.31946C174.528 3.13521 174.54 2.87133 174.431 2.66377C174.391 2.58847 174.359 2.55913 174.301 2.50105C174.214 2.41351 174.054 2.3335 173.882 2.3335H172.824V4.4134V4.41333Z" fill="#2A55A3"/>
<path fill-rule="evenodd" clip-rule="evenodd" d="M8.17289 10.8025C8.17289 11.8829 10.0649 13.8629 12.118 13.835C9.94015 12.6003 9.05398 11.8828 8.76477 9.59118C6.06974 10.5498 5.23267 10.4829 2.65625 9.18018C3.96449 10.9094 5.8101 11.3044 8.17289 10.8025Z" fill="#00A859"/>
<path fill-rule="evenodd" clip-rule="evenodd" d="M10.4677 6.34032C10.9209 8.55654 13.9543 12.316 17.8215 12.2634C13.5669 10.1992 11.9733 8.2691 11.9733 3.8062C7.67858 6.38694 5.63418 6.09065 0 3.49609C2.46409 6.75296 6.68034 7.28634 10.4677 6.34032Z" fill="#00A859"/>
<path fill-rule="evenodd" clip-rule="evenodd" d="M9.28719 8.83004C9.28712 10.5088 12.2273 13.5856 15.4176 13.5422C12.0639 11.6237 10.3634 10.5088 9.97259 7.21903C5.78473 8.70865 4.71837 8.33346 0.714844 6.30908C2.74776 8.99603 5.61551 9.60995 9.28712 8.82998L9.28719 8.83004Z" fill="#00A859"/>
<path fill-rule="evenodd" clip-rule="evenodd" d="M32.2362 10.8015C32.2362 11.8819 30.3442 13.8619 28.291 13.834C30.4689 12.5993 31.355 11.8819 31.6443 9.5902C34.3393 10.5489 35.1764 10.4819 37.7528 9.1792C36.4446 10.9084 34.599 11.3034 32.2362 10.8015Z" fill="#00A859"/>
<path fill-rule="evenodd" clip-rule="evenodd" d="M29.9007 6.26659C29.4475 8.48281 26.4141 12.2423 22.5469 12.1896C26.8015 10.1255 28.3951 8.19543 28.3951 3.73247C32.6897 6.31327 34.7341 6.01692 40.3683 3.42236C37.9042 6.67923 33.688 7.21268 29.9007 6.26659Z" fill="#00A859"/>
<path fill-rule="evenodd" clip-rule="evenodd" d="M31.0796 8.7568C31.0796 10.4356 28.1395 13.5123 24.9492 13.469C28.3029 11.5504 30.0035 10.4356 30.3942 7.14578C34.582 8.63547 35.6484 8.26022 39.6519 6.23584C37.6191 8.92279 34.7513 9.53671 31.0797 8.75673L31.0796 8.7568Z" fill="#00A859"/>
<path fill-rule="evenodd" clip-rule="evenodd" d="M31.1144 17.5907C29.8738 17.7815 27.4644 17.4586 26.2912 17.1948C24.8403 16.8684 23.5911 16.2641 22.5867 15.58C21.3784 14.7572 20.6083 13.6575 20.2009 12.5644C19.7931 13.6575 19.0229 14.757 17.8148 15.58C16.8105 16.2641 15.5612 16.8684 14.1103 17.1948C12.9371 17.4586 10.5276 17.7815 9.28711 17.5907C9.33318 17.4982 10.2825 16.2099 10.3478 16.1543C10.5979 15.943 10.5049 16.0184 10.9309 16.0316C11.1505 16.0382 11.3277 16.0496 11.5519 16.0422C14.7997 15.9338 18.9684 14.2228 19.8924 11.3619L19.8804 11.2715C19.3726 12.3761 18.2893 13.3442 17.3122 14.0085C15.7233 15.0884 13.0253 15.9942 10.6206 15.7158C10.7105 15.5308 11.702 14.1998 11.9755 13.91C12.007 13.8765 12.0417 13.843 12.0767 13.8127C15.0074 14.6732 19.8167 11.0058 19.6548 10.4146C19.8508 10.5282 20.0438 10.7169 20.2009 10.9922C20.343 10.7424 20.5035 10.567 20.7467 10.4146C20.5848 11.0058 25.3943 14.6732 28.3248 13.8127C28.3598 13.843 28.3944 13.8765 28.426 13.91C28.6997 14.1998 29.6911 15.5307 29.7809 15.7158C27.3763 15.9941 24.678 15.0884 23.0893 14.0085C22.0986 13.335 21.0301 12.3687 20.5221 11.2637L20.5093 11.3619C21.4333 14.2229 25.6018 15.9333 28.8496 16.0422C29.0738 16.0496 29.2509 16.0382 29.4705 16.0316C29.8965 16.0184 29.8035 15.9429 30.0536 16.1543C30.1189 16.2099 31.0683 17.4982 31.1143 17.5907H31.1144Z" fill="#2A55A3"/>
<path fill-rule="evenodd" clip-rule="evenodd" d="M20.1491 11.3139C16.3411 11.3139 13.2539 8.25127 13.2539 4.47327C13.2539 4.26616 13.2637 4.05912 13.2824 3.85287C13.2851 3.82353 13.3096 3.80127 13.3393 3.80127C13.369 3.80127 13.3936 3.8236 13.3963 3.85287C13.71 7.31454 16.6442 9.97006 20.1491 9.97006C23.654 9.97006 26.5881 7.31441 26.9018 3.85287C26.9045 3.82353 26.9291 3.80127 26.9588 3.80127C26.9885 3.80127 27.013 3.8236 27.0157 3.85287C27.0345 4.05912 27.0442 4.26616 27.0442 4.47327C27.0442 8.2512 23.9572 11.3139 20.149 11.3139H20.1491Z" fill="url(#paint0_linear_4144_145)"/>
<path d="M1.75391 22.1485V19.3556H2.35628V21.6407H3.3171V22.1485H1.75391ZM4.94782 21.0195C4.93284 20.9012 4.88948 20.8113 4.81787 20.7506C4.74698 20.6901 4.6499 20.6601 4.52721 20.6601C4.40458 20.6601 4.30604 20.6901 4.23252 20.7506C4.1584 20.8113 4.11174 20.9011 4.09075 21.0195H4.94782ZM5.48935 21.3477H4.07372C4.0953 21.4825 4.14461 21.5834 4.22209 21.6498C4.29885 21.7168 4.40313 21.75 4.53499 21.75C4.63492 21.75 4.72144 21.7312 4.79365 21.6928C4.86651 21.655 4.92683 21.5971 4.97541 21.5195L5.41648 21.7383C5.31412 21.9024 5.18938 22.0242 5.04365 22.1036C4.8972 22.183 4.72342 22.2227 4.52259 22.2227C4.2174 22.2227 3.97598 22.1322 3.79745 21.9519C3.61958 21.7716 3.53035 21.5287 3.53035 21.2234C3.53035 20.9297 3.62354 20.6882 3.80999 20.4988C3.99631 20.3094 4.23516 20.2148 4.52655 20.2148C4.82651 20.2148 5.06345 20.3035 5.23795 20.4813C5.41186 20.6582 5.49911 20.9005 5.49911 21.2065C5.49911 21.2234 5.49852 21.2409 5.49713 21.2612C5.49588 21.2807 5.49324 21.3092 5.48935 21.3477ZM5.97226 22.1485V20.7032H5.70853V20.2775H5.97226V19.6562H6.51966V20.2775H6.7834V20.7032H6.51966V22.1485H5.97226ZM7.15676 20.5509L7.52768 19.3556H8.11758L7.52365 20.5509H7.15676ZM8.32693 21.8204L8.74827 21.6056C8.762 21.6779 8.80001 21.7352 8.86179 21.7767C8.92277 21.8192 8.99894 21.84 9.09015 21.84C9.18004 21.84 9.25026 21.8237 9.30148 21.7911C9.35269 21.7591 9.37824 21.7143 9.37824 21.6569C9.37824 21.5664 9.28702 21.491 9.10526 21.4298C9.04883 21.4108 9.00415 21.3953 8.97069 21.3823C8.749 21.2997 8.59535 21.2162 8.51001 21.1323C8.42481 21.0483 8.38217 20.9448 8.38217 20.8217C8.38217 20.6381 8.45424 20.4904 8.59931 20.3771C8.74444 20.2638 8.93538 20.2072 9.17278 20.2072C9.34147 20.2072 9.48852 20.2409 9.61187 20.308C9.73582 20.3751 9.82584 20.4708 9.88221 20.5939L9.48053 20.7931C9.45902 20.7228 9.42094 20.6694 9.36702 20.6329C9.31329 20.5965 9.24571 20.5783 9.16493 20.5783C9.08421 20.5783 9.01926 20.5945 8.96878 20.6278C8.91888 20.661 8.894 20.7046 8.894 20.758C8.894 20.8511 9.01794 20.9377 9.2667 21.0184C9.2962 21.0269 9.31857 21.034 9.33435 21.0393C9.54099 21.1062 9.68797 21.185 9.77529 21.2743C9.86261 21.3641 9.9059 21.478 9.9059 21.6166C9.9059 21.8023 9.8337 21.9494 9.68863 22.0588C9.54363 22.1681 9.34814 22.2228 9.10203 22.2228C8.90707 22.2228 8.74108 22.1869 8.6032 22.1154C8.4648 22.0432 8.373 21.9448 8.327 21.8205L8.32693 21.8204ZM12.9619 20.6758H14.2436C14.2463 20.6921 14.2482 20.7103 14.2489 20.7293C14.2495 20.7481 14.2495 20.7775 14.2495 20.8171C14.2495 21.235 14.1294 21.5743 13.8886 21.8333C13.6477 22.0931 13.336 22.2227 12.9547 22.2227C12.5177 22.2227 12.1574 22.0847 11.8747 21.8081C11.5918 21.5313 11.45 21.1798 11.45 20.754C11.45 20.3322 11.5924 19.9831 11.8766 19.707C12.1607 19.4309 12.5203 19.2929 12.9547 19.2929C13.1838 19.2929 13.3938 19.3404 13.5848 19.4362C13.7757 19.5312 13.9463 19.6738 14.096 19.864L13.691 20.1602C13.5901 20.0359 13.4837 19.9466 13.3721 19.8912C13.2606 19.8359 13.1313 19.8085 12.9856 19.8085C12.7073 19.8085 12.4849 19.8945 12.3183 20.0664C12.1515 20.2375 12.0683 20.4674 12.0683 20.7546C12.0683 21.0372 12.1516 21.265 12.3189 21.4388C12.4862 21.6126 12.7047 21.6993 12.9738 21.6993C13.1713 21.6993 13.3315 21.653 13.4549 21.5605C13.5775 21.4681 13.6393 21.3476 13.6393 21.1985V21.168H12.962V20.6757L12.9619 20.6758ZM15.2076 20.7586C15.2626 20.5763 15.3415 20.4403 15.4444 20.3503C15.5481 20.2598 15.6754 20.2148 15.8283 20.2148C15.8624 20.2148 15.9195 20.2214 15.9989 20.2338C16.0147 20.2364 16.026 20.2383 16.0338 20.2396L15.951 20.8244C15.9103 20.8073 15.869 20.7944 15.827 20.7859C15.7857 20.7775 15.7416 20.7735 15.6957 20.7735C15.5291 20.7735 15.4089 20.8159 15.3361 20.9004C15.2632 20.9851 15.2265 21.1271 15.2265 21.3256V22.1484H14.6791V20.2774H15.2186L15.2074 20.7585L15.2076 20.7586ZM17.7078 21.2157C17.7078 21.0632 17.6633 20.9422 17.5733 20.851C17.4833 20.7605 17.3633 20.7149 17.2117 20.7149C17.0608 20.7149 16.9407 20.7598 16.8522 20.8504C16.7634 20.9403 16.7196 21.062 16.7196 21.2157C16.7196 21.3686 16.7634 21.4903 16.8522 21.5815C16.9407 21.6733 17.0608 21.7188 17.2117 21.7188C17.3621 21.7188 17.4821 21.6733 17.572 21.5815C17.6626 21.4904 17.7078 21.3686 17.7078 21.2157ZM18.267 21.2195C18.267 21.5073 18.1679 21.7462 17.9697 21.937C17.7715 22.1277 17.5208 22.2228 17.2163 22.2228C16.9098 22.2228 16.6572 22.1278 16.4583 21.937C16.2595 21.7462 16.1603 21.5073 16.1603 21.2195C16.1603 20.9336 16.2601 20.6947 16.4602 20.5027C16.6605 20.3106 16.9124 20.2148 17.2163 20.2148C17.522 20.2148 17.7734 20.3094 17.9708 20.4988C18.1685 20.6882 18.267 20.9285 18.267 21.2195ZM20.3177 20.2775L20.5907 21.2462C20.596 21.2658 20.6025 21.2989 20.6103 21.3477C20.6189 21.3959 20.634 21.4948 20.6556 21.6453C20.6675 21.5867 20.6819 21.5248 20.6989 21.4597C20.716 21.3952 20.7376 21.3222 20.7632 21.2422L21.0565 20.2774H21.6524L20.9988 22.1484H20.416L20.1333 21.1798C20.128 21.1616 20.1195 21.1328 20.1084 21.0938C20.0656 20.9472 20.0348 20.8281 20.0158 20.735C19.9987 20.8217 19.9823 20.9004 19.9665 20.9714C19.9501 21.043 19.933 21.1094 19.9153 21.1719L19.6247 22.1484H19.042L18.3883 20.2774H18.9862L19.2749 21.2064C19.3005 21.2904 19.3216 21.3659 19.338 21.4343C19.355 21.5019 19.3688 21.5716 19.3807 21.6432C19.3906 21.5658 19.403 21.4909 19.4174 21.4187C19.4312 21.3471 19.4476 21.2774 19.4673 21.2103L19.7192 20.2775H20.3179H20.3177ZM24.5505 20.6758H25.8322C25.8348 20.6921 25.8367 20.7103 25.8375 20.7293C25.8381 20.7481 25.8381 20.7775 25.8381 20.8171C25.8381 21.235 25.7179 21.5743 25.4772 21.8333C25.2362 22.0931 24.9246 22.2227 24.5432 22.2227C24.1062 22.2227 23.7459 22.0847 23.4632 21.8081C23.1803 21.5313 23.0386 21.1798 23.0386 20.754C23.0386 20.3322 23.1808 19.9831 23.4652 19.707C23.7492 19.4309 24.1089 19.2929 24.5432 19.2929C24.7723 19.2929 24.9823 19.3404 25.1732 19.4362C25.3642 19.5312 25.5348 19.6738 25.6845 19.864L25.2796 20.1602C25.1786 20.0359 25.0721 19.9466 24.9606 19.8912C24.849 19.8359 24.7198 19.8085 24.5741 19.8085C24.2958 19.8085 24.0734 19.8945 23.9068 20.0664C23.74 20.2375 23.6568 20.4674 23.6568 20.7546C23.6568 21.0372 23.7401 21.265 23.9074 21.4388C24.0747 21.6126 24.2933 21.6993 24.5623 21.6993C24.7598 21.6993 24.9199 21.653 25.0434 21.5605C25.166 21.4681 25.2278 21.3476 25.2278 21.1985V21.168H24.5505V20.6757L24.5505 20.6758ZM26.2876 22.1485V19.1914H26.8349V22.1485H26.2876ZM28.816 21.2157C28.816 21.0632 28.7715 20.9422 28.6814 20.851C28.5915 20.7605 28.4715 20.7149 28.32 20.7149C28.169 20.7149 28.0489 20.7598 27.9603 20.8504C27.8716 20.9403 27.8278 21.062 27.8278 21.2157C27.8278 21.3686 27.8716 21.4903 27.9603 21.5815C28.0489 21.6733 28.169 21.7188 28.32 21.7188C28.4702 21.7188 28.5902 21.6733 28.6803 21.5815C28.7708 21.4904 28.816 21.3686 28.816 21.2157ZM29.3752 21.2195C29.3752 21.5073 29.276 21.7462 29.0778 21.937C28.8796 22.1277 28.629 22.2228 28.3245 22.2228C28.018 22.2228 27.7654 22.1278 27.5665 21.937C27.3677 21.7462 27.2685 21.5073 27.2685 21.2195C27.2685 20.9336 27.3683 20.6947 27.5684 20.5027C27.7687 20.3106 28.0206 20.2148 28.3245 20.2148C28.6302 20.2148 28.8816 20.3094 29.0791 20.4988C29.2767 20.6882 29.3752 20.9285 29.3752 21.2195ZM30.2867 21.2097C30.2867 21.379 30.3286 21.5112 30.4126 21.6049C30.4966 21.6993 30.6134 21.7462 30.7637 21.7462C30.9139 21.7462 31.0308 21.6993 31.1147 21.6049C31.1987 21.5112 31.2408 21.3789 31.2408 21.2097C31.2408 21.0404 31.1981 20.9076 31.1127 20.81C31.0274 20.7129 30.91 20.6641 30.7597 20.6641C30.6147 20.6641 30.4999 20.7129 30.4145 20.8113C30.3292 20.9088 30.2866 21.0417 30.2866 21.2096L30.2867 21.2097ZM29.7879 22.1485V19.1914H30.3117V20.2585C30.3117 20.3171 30.3097 20.3751 30.3051 20.433C30.3005 20.4904 30.2945 20.5469 30.2868 20.6015C30.3766 20.4668 30.4739 20.3684 30.5787 20.3072C30.6844 20.2455 30.8044 20.2148 30.9403 20.2148C31.2094 20.2148 31.4194 20.3026 31.5702 20.4791C31.7206 20.655 31.796 20.9004 31.796 21.2161C31.796 21.5195 31.7199 21.7637 31.5671 21.9473C31.4149 22.131 31.214 22.2226 30.9653 22.2226C30.8156 22.2226 30.6883 22.1953 30.5839 22.14C30.4789 22.0845 30.3896 21.998 30.3156 21.8795L30.3195 22.1484H29.7879V22.1485ZM33.6034 21.2097C33.6034 21.0418 33.5607 20.9089 33.4754 20.8113C33.39 20.713 33.2753 20.6642 33.1301 20.6642C32.9812 20.6642 32.8644 20.713 32.7792 20.81C32.6938 20.9076 32.6511 21.0405 32.6511 21.2098C32.6511 21.379 32.693 21.5112 32.777 21.6049C32.8611 21.6994 32.9772 21.7462 33.1262 21.7462C33.2778 21.7462 33.3953 21.6994 33.4787 21.6049C33.562 21.5112 33.6034 21.379 33.6034 21.2098V21.2097ZM34.104 22.1485H33.5724L33.5803 21.8796C33.5061 21.9982 33.417 22.0846 33.312 22.1401C33.2075 22.1954 33.0802 22.2227 32.9306 22.2227C32.6807 22.2227 32.4791 22.1302 32.3257 21.9461C32.1728 21.7618 32.0959 21.5183 32.0959 21.2161C32.0959 20.9004 32.1713 20.655 32.3216 20.4791C32.4726 20.3026 32.6819 20.2148 32.9498 20.2148C33.0895 20.2148 33.2121 20.2461 33.3178 20.3079C33.4235 20.3705 33.5128 20.4629 33.5842 20.5859V20.2774H34.104V22.1484L34.104 22.1485ZM34.6388 22.1485V19.1914H35.1862V22.1485H34.6388ZM35.7617 22.1485V19.1914H36.309V22.1485H35.7617ZM37.3294 22.004L36.5694 20.2775H37.2027L37.5295 21.1335C37.5511 21.1868 37.5689 21.2488 37.5833 21.3177C37.5971 21.3875 37.6082 21.4643 37.6162 21.5495C37.6286 21.4812 37.645 21.4108 37.6641 21.3399C37.6831 21.2682 37.7067 21.1927 37.735 21.1126L38.0217 20.2774H38.6484L37.5254 23H36.9198L37.3294 22.0039L37.3294 22.004Z" fill="#2A55A3"/>
<path d="M20.1491 0C21.5239 0 22.7692 0.546216 23.671 1.42912C24.5739 2.31333 25.1325 3.53456 25.1325 4.88281C25.1325 6.23126 24.574 7.45255 23.671 8.33676C22.7692 9.21973 21.524 9.76595 20.1491 9.76595C18.7743 9.76595 17.5292 9.21973 16.6274 8.3367C15.7245 7.45242 15.166 6.23119 15.166 4.88281C15.166 3.53442 15.7246 2.31326 16.6275 1.42918C17.5293 0.546216 18.7744 0 20.1491 0ZM23.318 1.78525C22.5076 0.991726 21.3873 0.500905 20.1491 0.500905C18.9112 0.500905 17.7908 0.991792 16.9805 1.78532C16.1715 2.57753 15.6709 3.67278 15.6709 4.88287C15.6709 6.09303 16.1715 7.18835 16.9805 7.98069C17.7909 8.77428 18.9112 9.26517 20.1491 9.26517C21.3873 9.26517 22.5077 8.77428 23.318 7.98076C24.1272 7.18841 24.6277 6.0931 24.6277 4.88287C24.6277 3.67284 24.1272 2.57766 23.318 1.78525Z" fill="#2A55A3"/>
<path d="M20.3285 0.254024C21.1383 1.23115 21.8657 3.1268 21.8657 5.12413C21.8657 6.64191 21.4474 8.22287 20.3313 9.5118C20.2711 9.51409 20.2106 9.51553 20.1497 9.51553C20.1134 9.51553 20.0771 9.51501 20.041 9.51422V0.251798C20.0772 0.251012 20.1134 0.250488 20.1497 0.250488C20.2096 0.250488 20.2692 0.251929 20.3285 0.25409V0.254024ZM21.6502 5.12413C21.6502 3.25186 21.0014 1.47774 20.2565 0.503625V9.27195C21.2686 8.04634 21.6502 6.55731 21.6502 5.12413Z" fill="#2A55A3"/>
<path d="M20.037 0.503691C19.2921 1.4778 18.6433 3.25192 18.6433 5.1242C18.6433 6.55737 19.0249 8.04641 20.037 9.27202V0.503691ZM20.1489 0.250488C20.1835 0.250488 20.2181 0.251012 20.2526 0.251732V9.51429C20.2181 9.51501 20.1835 9.51553 20.1489 9.51553C20.0862 9.51553 20.024 9.51402 19.9619 9.5116C18.846 8.22267 18.4277 6.64184 18.4277 5.12413C18.4277 3.12699 19.1551 1.23141 19.9648 0.254286C20.0258 0.251994 20.0872 0.250488 20.1489 0.250488Z" fill="#2A55A3"/>
<path d="M20.4271 0.258608C21.1655 0.748119 21.8648 1.46012 22.3802 2.29523C22.8442 3.04776 23.162 3.9033 23.2267 4.78705C23.2917 5.6748 23.1043 6.59345 22.5596 7.47072C22.1124 8.19104 21.4226 8.8838 20.4343 9.50682C20.3397 9.51239 20.2443 9.51553 20.1482 9.51553C20.1117 9.51553 20.0753 9.51501 20.0391 9.51422V0.251798C20.0754 0.251012 20.1118 0.250488 20.1482 0.250488C20.2419 0.250488 20.3349 0.253435 20.4272 0.258673L20.4271 0.258608ZM22.1959 2.40425C21.6847 1.57622 20.9879 0.873837 20.2553 0.400301V9.36879C21.2474 8.75442 21.935 8.07076 22.3753 7.36092C22.8945 6.5247 23.0731 5.64828 23.0112 4.80198C22.9488 3.9526 22.6429 3.12942 22.1959 2.40431V2.40425Z" fill="#2A55A3"/>
<path d="M20.0403 0.400498C19.3078 0.874033 18.6109 1.57641 18.0998 2.40445C17.6527 3.12955 17.3468 3.95273 17.2845 4.8025C17.2226 5.6488 17.4012 6.52522 17.9203 7.36151C18.3607 8.07089 19.0478 8.75455 20.0403 9.36892V0.400432V0.400498ZM20.1494 0.250619C20.1853 0.250619 20.221 0.251143 20.2566 0.251929V9.51435C20.221 9.51514 20.1853 9.51566 20.1494 9.51566C20.0526 9.51566 19.9565 9.51245 19.8611 9.50682C18.8732 8.88426 18.1831 8.1915 17.736 7.47131C17.1914 6.59398 17.004 5.67532 17.069 4.78758C17.1335 3.90336 17.4515 3.0479 17.9155 2.29536C18.4308 1.46032 19.13 0.748381 19.8683 0.258869C19.9613 0.2535 20.055 0.250488 20.1495 0.250488L20.1494 0.250619Z" fill="#2A55A3"/>
<path d="M15.7928 3.07275H24.5047C24.535 3.14255 24.5635 3.2132 24.5904 3.28464H15.707C15.7339 3.2132 15.7624 3.14249 15.7927 3.07275H15.7928Z" fill="#2A55A3"/>
<path d="M15.4277 5.17139H24.8707C24.8662 5.24243 24.8602 5.31308 24.8525 5.38327H15.446C15.4383 5.31308 15.4323 5.24243 15.4278 5.17139H15.4277Z" fill="#2A55A3"/>
<path d="M16.0938 7.27051H24.2032C24.1589 7.34247 24.1128 7.41312 24.0646 7.48239H16.2322C16.1842 7.41305 16.138 7.3424 16.0938 7.27051Z" fill="#2A55A3"/>
<defs>
<linearGradient id="paint0_linear_4144_145" x1="13.254" y1="7.5576" x2="27.0444" y2="7.5576" gradientUnits="userSpaceOnUse">
<stop stop-color="#DC9617"/>
<stop offset="0.388235" stop-color="#FFCF25"/>
<stop offset="0.6" stop-color="#FFFF90"/>
<stop offset="0.85098" stop-color="#DA9917"/>
<stop offset="1" stop-color="#ECBF26"/>
</linearGradient>
</defs>
</svg>
